<?xml version="1.0" standalone="no"?>
<!DOCTYPE svg PUBLIC "-//W3C//DTD SVG 20010904//EN"
 "http://www.w3.org/TR/2001/REC-SVG-20010904/DTD/svg10.dtd">
<svg version="1.0" xmlns="http://www.w3.org/2000/svg"
 width="192.000000pt" height="192.000000pt" viewBox="0 0 192.000000 192.000000"
 preserveAspectRatio="xMidYMid meet">

<g transform="translate(0.000000,192.000000) scale(0.100000,-0.100000)"
fill="#000000" stroke="none">
<path d="M896 1863 c-9 -27 -33 -70 -54 -98 l-38 -50 -351 -5 c-193 -3 -353
-7 -356 -10 -42 -48 -34 -141 14 -166 l29 -15 -2 -616 -3 -616 -50 -27 c-27
-15 -57 -39 -65 -53 -13 -24 -13 -28 6 -53 74 -100 394 -149 949 -148 401 0
630 23 814 81 55 17 121 69 121 96 0 23 -31 55 -80 80 l-45 24 -3 616 -2 616
29 15 c51 27 56 135 7 168 -6 4 -158 8 -337 8 l-326 0 -31 48 c-44 65 -58 82
-68 82 -4 0 -25 -17 -46 -37 l-38 -37 22 -23 c20 -22 23 -22 40 -6 17 15 19
15 34 -3 45 -56 57 -140 28 -197 -32 -63 -39 -67 -134 -67 -77 0 -89 2 -107
23 -61 66 -59 115 8 198 28 35 56 74 62 87 7 16 16 21 29 16 12 -3 27 1 39 12
19 17 19 18 -23 61 -23 24 -45 43 -49 43 -4 0 -15 -21 -23 -47z m-146 -243 l0
-30 -305 0 -305 0 0 30 0 30 305 0 305 0 0 -30z m1030 0 l0 -30 -305 0 -305 0
0 30 0 30 305 0 305 0 0 -30z m-1525 -215 l0 -120 -27 -3 -28 -3 0 126 0 126
28 -3 27 -3 0 -120z m125 0 l0 -125 -30 0 -30 0 0 125 0 125 30 0 30 0 0 -125z
m120 0 l0 -125 -30 0 -30 0 0 125 0 125 30 0 30 0 0 -125z m120 -1 l0 -125
-27 3 -28 3 -3 109 c-1 61 0 116 2 123 3 7 17 13 31 13 l25 0 0 -126z m152 96
c16 -29 16 -30 -2 -30 -15 0 -20 -7 -20 -29 0 -25 4 -30 28 -33 26 -3 27 -5
27 -63 l0 -60 -57 -3 -58 -3 0 126 0 125 33 0 c25 0 36 -6 49 -30z m458 -95
l0 -126 -57 3 -58 3 0 60 c0 58 1 60 28 63 23 3 27 8 27 33 0 22 -5 29 -20 29
-20 0 -20 1 -5 30 13 25 22 30 50 30 l35 0 0 -125z m125 0 l0 -120 -27 -3 -28
-3 0 126 0 126 28 -3 27 -3 0 -120z m125 0 l0 -125 -30 0 -30 0 0 125 0 125
30 0 30 0 0 -125z m120 0 l0 -125 -30 0 -30 0 0 125 0 125 30 0 30 0 0 -125z
m120 -1 l0 -125 -27 3 -28 3 -3 109 c-1 61 0 116 2 123 3 7 17 13 31 13 l25 0
0 -126z m-672 -61 l3 -63 -91 0 -90 0 0 58 c0 32 3 62 7 66 4 4 43 5 88 4 l80
-3 3 -62z m672 -153 l0 -30 -760 0 -760 0 0 30 0 30 760 0 760 0 0 -30z m0
-120 l0 -30 -760 0 -760 0 0 30 0 30 760 0 760 0 0 -30z m0 -120 l0 -30 -760
0 -760 0 0 30 0 30 760 0 760 0 0 -30z m0 -125 l0 -35 -760 0 -760 0 0 35 0
35 760 0 760 0 0 -35z m0 -311 c0 -200 -1 -215 -17 -210 -82 24 -320 50 -565
61 l-148 7 0 119 0 119 -30 0 -30 0 0 -119 0 -119 -142 -6 c-241 -11 -492 -39
-570 -62 -17 -5 -18 10 -18 210 l0 216 760 0 760 0 0 -216z m-370 -225 c266
-19 490 -69 490 -109 0 -23 -144 -62 -310 -84 -427 -58 -1028 -42 -1337 36
-142 35 -147 59 -20 96 234 69 723 94 1177 61z"/>
<path d="M915 1650 l-39 -40 22 -22 c21 -21 22 -21 42 -3 19 18 21 18 40 0 20
-18 21 -18 42 3 l22 22 -39 40 c-21 22 -42 40 -45 40 -3 0 -24 -18 -45 -40z"/>
</g>
</svg>
