<?xml version="1.0" encoding="utf-8" ?><svg xmlns="http://www.w3.org/2000/svg" xmlns:xlink="http://www.w3.org/1999/xlink" width="681" height="681" viewBox="0 0 681 681"><path fill="#EDF2F4" transform="scale(0.665039 0.665039)" d="M0 0L1024 0L1024 1024L0 1024L0 0Z"/><path fill="#2B2D42" transform="scale(0.665039 0.665039)" d="M191.359 512.038C222.33 511.603 246.183 512.888 275.657 523.413C315.308 537.572 345.412 562.708 367.772 598.231C373.061 606.636 377.206 616.286 381.415 625.402C383.266 620.843 385.004 616.552 387.146 612.117C408.02 568.103 445.841 534.429 491.974 518.784C495.829 517.443 506.584 513.807 510.224 514.189C568.914 520.361 623.698 572.561 642.193 626.158C674.476 545.359 747.782 507.605 832.519 513.561L832.76 609.75L832.548 832.047L191.388 832.146L191.359 512.038Z"/><path fill="#EDF2F4" transform="scale(0.665039 0.665039)" d="M497.074 543.528L497.285 543.73C498.091 545.996 497.462 589.343 497.456 594.697C497.344 634.507 497.478 674.318 497.86 714.127C482.706 686.571 457.177 655.986 432.704 636.096C427.54 642.849 423.802 652.057 421.076 660.015C452.974 687.652 476.715 723.479 489.736 763.625C494.127 777.07 497.232 792.634 497.534 806.784C475.081 806.264 452.382 806.869 429.908 806.656C417.853 806.542 405.525 806.615 393.485 806.955L393.584 737.679C393.551 699.105 390.489 670.375 405.895 633.865C424.309 590.225 453.569 561.457 497.074 543.528Z"/><path fill="#EDF2F4" transform="scale(0.665039 0.665039)" d="M526.107 544.936C544.731 550.741 567.368 566.334 581.265 579.985C609.289 607.513 625.919 643.5 630.539 682.425C631.089 687.057 630.73 696.111 630.68 701.135C630.58 710.697 630.541 720.26 630.564 729.823L630.986 806.76L526.943 806.794C528.036 790.127 529.892 781.265 534.335 765.377C546.802 724.087 571.505 688.197 603.56 659.717C600.248 652.259 594.984 642.241 590.75 635.409C564.24 659.036 542.501 683.877 525.959 715.571C526.202 694.069 526.22 672.566 526.014 651.064L526.107 544.936Z"/><path fill="#EDF2F4" transform="scale(0.665039 0.665039)" d="M807.433 582.435C807.88 585.736 807.605 598.887 807.593 602.835C807.466 617.29 807.468 631.746 807.598 646.202C791.583 661.489 776.233 677.28 760.518 692.861C725.822 726.985 691.299 761.285 656.952 795.761C656.414 789.066 656.837 779.119 656.88 772.151C656.968 758.805 656.957 745.458 656.846 732.112C662.076 727.605 669.016 720.349 673.927 715.389L697.884 691.274L767.041 621.673C778.541 610.02 795.174 592.516 807.433 582.435Z"/><path fill="#EDF2F4" transform="scale(0.665039 0.665039)" d="M217.169 581.784C218.679 582.707 222.667 586.729 224.168 588.104C233.529 596.68 241.842 606.382 250.783 615.338L314.781 679.919C332.32 697.402 349.627 715.114 366.7 733.051C367.127 752.991 366.675 774.223 366.583 794.281C365.225 794.074 353.905 782.192 351.931 780.259C322.761 751.734 293.789 723.007 265.018 694.08L235.693 664.62C230.831 659.762 222.552 651.288 217.402 647.144L217.169 581.784Z"/><path fill="#EDF2F4" transform="scale(0.665039 0.665039)" d="M216.523 538.923C261.306 543.03 292.255 552.534 325.628 585.819C346.009 606.146 360.721 636.2 365.362 664.553C366.97 674.381 366.589 686.15 366.488 696.3C366.063 695.922 365.647 695.534 365.24 695.136C356.716 686.802 348.87 677.938 340.541 669.443L273.966 601.727C254.938 582.44 235.705 563.384 217.317 543.487C216.155 542.23 216.541 540.581 216.523 538.923Z"/><path fill="#EDF2F4" transform="scale(0.665039 0.665039)" d="M805.367 538.734C806.557 538.522 806.473 538.517 807.644 538.812L807.995 539.705C806.958 544.237 793.018 557.801 789.215 561.789C777.816 573.814 766.261 585.69 754.552 597.415L658.33 694.337L657.148 695.248C655.783 693.689 657.004 682.713 657.183 680.156C659.431 647.775 671.802 616.92 692.545 591.955C721.703 557.497 761.317 542.346 805.367 538.734Z"/><path fill="#EDF2F4" transform="scale(0.665039 0.665039)" d="M806.867 683.401C806.897 683.429 806.931 683.454 806.955 683.486C808.277 685.237 807.824 739.01 807.861 745.547C803.902 750.207 795.685 757.417 791.124 762.11C776.903 776.745 760.662 791.47 747.16 806.626C726.019 806.494 704.878 806.521 683.737 806.706L683.418 806.741L683.184 806.162C684.858 803.51 694.586 794.792 697.39 792.058L725.381 764.339L806.867 683.401Z"/><path fill="#EDF2F4" transform="scale(0.665039 0.665039)" d="M217.306 683.201C219.776 685.056 229.482 694.915 232.255 697.644L266.16 731.336L312.31 777.527C321.113 786.323 332.68 797.37 340.708 806.643C319.825 806.814 298.941 806.427 278.024 806.777C258.109 786.423 237.891 766.366 217.378 746.614L217.306 683.201Z"/><path fill="#EDF2F4" transform="scale(0.665039 0.665039)" d="M217.486 782.346C222.695 786.392 237.283 801.656 241.654 806.606L217.465 806.839L217.486 782.346Z"/><path fill="#EDF2F4" transform="scale(0.665039 0.665039)" d="M807.329 782.383C807.914 787.057 807.607 801.238 807.629 806.614L784.694 806.541C784.942 804.273 804.309 785.442 807.329 782.383Z"/><defs><linearGradient id="gradient_0" gradientUnits="userSpaceOnUse" x1="511.53156" y1="502.82419" x2="509.43201" y2="215.13568"><stop offset="0" stop-color="#8D99AE"/><stop offset="1" stop-color="#E0E0E0"/></linearGradient></defs><path fill="url(#gradient_0)" transform="scale(0.665039 0.665039)" d="M402.161 211.004C409.532 207.8 422.503 204.24 430.354 202.139C479.594 188.716 531.389 187.667 581.133 199.085C591.076 201.315 611.906 206.475 620.656 211.175C623.296 211.479 635.839 216.507 638.664 217.735C672.825 232.717 704.133 253.503 731.2 279.17C790.781 336.145 829.764 418.887 831.618 501.651C772.182 501.867 711.84 500.076 652.505 501.245L652.591 406.114L559.559 405.99L559.491 348.827C543.913 332.522 527.553 316.433 512.268 300.006C503.178 308.289 495.177 316.388 486.737 325.355C479.38 333.171 471.482 340.577 464.415 348.681L464.407 406.027L372.885 406.198L372.845 463.1C372.82 475.228 372.992 488.126 372.435 500.172C348.426 499.563 323.442 500.155 299.37 500.341L191.919 500.708C194.473 446.093 207.508 401.484 234.097 353.68C265.252 298.72 311.971 254.206 368.371 225.74C376.492 221.603 393.469 213.476 402.161 211.004Z"/><path fill="#BFC0C3" transform="scale(0.665039 0.665039)" d="M402.161 211.004C409.532 207.8 422.503 204.24 430.354 202.139C479.594 188.716 531.389 187.667 581.133 199.085C591.076 201.315 611.906 206.475 620.656 211.175L620.799 211.811C626.052 213.972 631.251 215.476 636.324 217.561L636.101 218.266L635.108 218.772C633.549 217.98 630.461 217.787 629.511 219.392C622.955 230.464 615.023 240.752 605.228 249.222C605.472 249.011 604.007 248.744 603.174 249.117C602.559 250.783 602.275 251.952 600.849 253.034C590.021 261.246 579.509 270.605 567.663 277.29C565.083 278.746 562.585 280.52 559.836 281.921C556.299 283.722 549.566 283.32 546.337 284.273C541.227 286.142 536.065 287.502 530.883 289.116C526.216 290.568 522.454 288.922 519.291 292.588C518.453 291.412 518.56 291.378 517.234 290.883C513.211 291.982 508.217 292.963 504.094 293.799L503.764 292.534C502.527 292.258 499.891 293.002 498.463 293.293C495.643 292.656 494.59 290.454 492.99 290.119C490.962 290.011 480.448 286.644 479.396 286.882C471.129 288.75 467.84 285.21 460.146 281.229C453.026 277.544 445.305 269.963 438.122 265.756C436.387 264.739 432.668 259.712 430.762 258.275C424.544 252.379 417.924 247.181 411.383 241.671C406.723 237.963 397.872 226.751 395.273 221.778C395.716 220.332 395.881 220.215 395.745 218.745C394.06 216.674 394.621 217.323 391.832 216.241C392.808 215.004 400.121 212.437 401.992 211.716L402.161 211.004Z"/><defs><linearGradient id="gradient_1" gradientUnits="userSpaceOnUse" x1="488.39761" y1="496.13922" x2="538.30579" y2="354.78802"><stop offset="0" stop-color="#AFB4C1"/><stop offset="1" stop-color="#D7D7D7"/></linearGradient></defs><path fill="url(#gradient_1)" transform="scale(0.665039 0.665039)" d="M511.967 344.378C514.214 346.028 526.658 359.091 528.645 361.436C527.854 407.122 528.927 454.237 528.59 500.101C523.269 500.221 517.947 500.281 512.625 500.283L495.498 500.131L495.233 420.624C495.223 400.891 495.524 381.423 495.125 361.669C500.291 355.824 506.421 349.861 511.967 344.378Z"/><path fill="#BFC0C3" transform="scale(0.665039 0.665039)" d="M559.69 436.598C579.914 437.44 602.364 437.031 622.764 437.037C622.876 458.124 622.808 479.212 622.558 500.298C618.158 500.882 606.985 500.543 601.784 500.529L559.542 500.318C559.542 479.303 559.252 457.556 559.69 436.598Z"/><path fill="#BFC0C3" transform="scale(0.665039 0.665039)" d="M402.454 436.915C422.628 437.247 443.643 436.824 463.987 437.006L464.271 499.566C448.048 500.356 418.985 500.364 402.493 499.689L402.454 436.915Z"/></svg>