<svg xmlns="http://www.w3.org/2000/svg" version="1.1" xmlns:xlink="http://www.w3.org/1999/xlink" width="681" height="681"><svg xmlns="http://www.w3.org/2000/svg" xmlns:xlink="http://www.w3.org/1999/xlink" width="681" height="681" viewBox="0 0 681 681"><path fill="#E2E2E2" transform="scale(0.665039 0.665039)" d="M0 0L1024 0L1024 1024L0 1024L0 0Z"></path><path fill="#283618" transform="scale(0.665039 0.665039)" d="M511.774 20.2404C514.679 22.2196 526.098 40.8677 528.805 45.0436C535.35 55.1691 541.729 65.4012 547.94 75.7358C565.344 104.316 574.237 122.396 577.074 156.852C586.05 150.67 594.029 143.263 602.742 136.998C623.153 122.32 642.675 105.051 663.152 90.6712C661.87 98.4531 661.248 107.539 660.242 115.46C656.625 143.92 655.377 171.713 655.514 200.406C666.927 188.534 678.018 176.854 690.743 166.394C694.791 163.067 698.386 159.485 702.875 156.734C706.865 169.507 709.781 186.015 712.508 199.406C715.967 216.385 721.468 235.096 721.526 252.244C721.563 263.281 718.331 274.638 715.08 285.072C742.182 285.617 771.163 285.061 798.419 285.072L959.504 285.119L959.114 813.478L928.26 813.507L928.454 727.57L500.75 727.933L96.0254 727.496L95.9515 813.644C85.5467 813.513 75.1407 813.516 64.7361 813.652L64.9645 284.99L310.655 284.99C298.841 253.067 304.38 226.593 310.712 194.481C313.399 180.57 316.205 166.682 319.131 152.819C335.199 169.395 352.264 185.599 368.549 202.24C368.261 184.693 369.735 163.612 367.276 146.382C364.503 126.947 362.233 107.136 359.294 87.7797C367.127 94.4819 377.161 101.425 385.479 107.915C406.736 124.501 427.061 140.368 447.356 158.14C448.345 151.051 448.492 144.507 449.929 137.305C457.359 100.085 481.297 69.6009 500.229 37.6402C503.473 32.1636 507.823 25.1215 511.774 20.2404Z"></path><path fill="#E2E2E2" transform="scale(0.665039 0.665039)" d="M512.007 77.8655C533.873 110.592 552.458 141.728 544.364 182.88C541.751 196.162 537.008 206.327 532.27 218.809C526.74 233.376 523.121 249.699 523.004 265.284C532.89 271.648 544.814 279.886 554.362 286.806C554.336 246.909 558.248 220.638 588.354 190.566C597.555 181.377 613.675 167.547 624.518 160.445C624.325 174.224 624.225 188.004 624.218 201.784C624.185 210.032 624.636 221.705 623.2 229.619C622.571 233.085 616.718 240.342 614.483 243.439C606.632 254.316 594.454 269.378 588.868 281.481C597.78 286.82 608.132 293.302 617.325 297.975C621.863 290.385 625.627 282.497 630.71 275.267C639.774 262.373 650.694 250.385 661.533 238.965C668.38 231.753 675.362 223.965 682.362 216.951C684.656 223.93 686.57 231.029 688.095 238.215C689.846 246.457 691.295 253.956 688.755 262.199C682.778 281.597 672.012 298.667 660.776 315.367C668.331 320.943 677.139 327.276 684.299 333.257L695.574 316.991C709.283 316.836 723.231 316.554 736.921 316.604L736.787 426.404C736.877 451.113 737.463 477.816 736.871 502.394L689.061 502.392L332.56 502.457L287.023 502.434C287.31 463.941 287.392 425.448 287.27 386.954C287.239 364.329 286.697 339.257 287.283 316.759L327.668 316.651C331.591 321.816 336.201 328.212 340.293 333.103L364.396 314.433C342.692 287.776 331.608 268.056 335.4 232.122C335.986 226.793 336.991 221.517 338.406 216.345C342.977 220.72 347.418 225.218 351.81 229.771C367.29 245.819 384.682 260.566 396.718 279.553C400.573 285.635 404.035 291.921 407.659 298.14C415.122 293.471 427.198 286.148 434.042 281.14C425.369 264.46 416.743 252.562 405.369 238.857C397.937 229.902 399.711 173.618 399.969 160.497C432.143 184.174 462.971 211.373 468.8 253.162C470.47 265.131 470.452 274.585 470.299 286.608C480.531 280.007 491.48 272.136 501.487 265.077C500.674 238.202 494.55 225.391 485.054 201.063C466.851 154.43 486.204 116.226 512.007 77.8655Z"></path><path transform="scale(0.665039 0.665039)" d="M332.56 502.457C332.745 447.358 348.965 399.968 388.15 359.627C419.35 327.506 465.384 307.151 510.575 307.424C558.39 307.511 604.122 327.006 637.294 361.444C670.517 395.332 690.515 440.857 689.543 488.462C689.467 492.187 688.922 499.302 689.061 502.392L332.56 502.457Z"></path><path fill="#E2E2E2" transform="scale(0.665039 0.665039)" d="M96.2546 662.986L928.442 663.037L928.493 695.865C927.236 696.804 806.816 696.485 793.547 696.49L545.564 696.606L282.907 696.513C220.616 696.698 158.324 696.535 96.0353 696.025C95.9641 685.011 96.0372 673.998 96.2546 662.986Z"></path><path fill="#E2E2E2" transform="scale(0.665039 0.665039)" d="M97.6005 534.248C136.094 533.619 175.857 534.373 214.474 534.406L448.467 534.54L928.185 534.018C928.181 538.452 928.443 563.64 927.888 566.697L927.084 567.211L96.1233 567.313C96.1248 562.278 95.8499 538.126 96.563 534.827L97.6005 534.248Z"></path><path fill="#E2E2E2" transform="scale(0.665039 0.665039)" d="M96.3331 599.003L680.049 599.024C762.464 598.976 845.988 598.12 928.347 598.97C928.453 609.875 928.43 620.782 928.279 631.687C888.993 632.142 849.704 632.171 810.418 631.772L642.517 631.575L96.0651 631.367L96.3331 599.003Z"></path><path fill="#E2E2E2" transform="scale(0.665039 0.665039)" d="M159.289 316.468C170.037 316.254 181.414 316.462 192.211 316.497L192.185 502.389C182.747 502.905 168.605 502.493 158.84 502.498C159.164 440.947 158.297 377.782 159.289 316.468Z"></path><path fill="#E2E2E2" transform="scale(0.665039 0.665039)" d="M832.026 316.659C842.509 316.399 854.01 316.596 864.563 316.594L864.789 502.962L831.904 503.012C831.345 440.895 831.386 378.775 832.026 316.659Z"></path><path fill="#E2E2E2" transform="scale(0.665039 0.665039)" d="M767.994 316.605L800.245 316.665C800.778 339.779 800.249 365.05 800.192 388.265L799.982 502.901L767.724 503.072L767.994 316.605Z"></path><path fill="#E2E2E2" transform="scale(0.665039 0.665039)" d="M223.579 316.496C234.248 316.351 245.311 316.499 256.006 316.511L255.988 502.466L223.497 502.484L223.579 316.496Z"></path><path fill="#E2E2E2" transform="scale(0.665039 0.665039)" d="M96.1741 316.563L128.539 316.622L128.339 502.514L96.3315 502.535L96.1741 316.563Z"></path><path fill="#E2E2E2" transform="scale(0.665039 0.665039)" d="M896.088 316.578C906.789 316.53 917.491 316.549 928.191 316.636C928.497 335.004 928.152 354.218 928.167 372.66L927.977 502.442L896.211 502.472C895.853 440.508 895.812 378.542 896.088 316.578Z"></path><path fill="#283618" transform="scale(0.665039 0.665039)" d="M473.048 792.231C581.729 790.222 880.686 796.28 959.918 869.626C968.851 877.895 975.889 888.622 976.312 901.124C976.694 912.402 971.591 922.154 964.001 930.183C919.175 977.606 764.324 997.081 698.892 1003.6C650.402 1008.1 601.78 1011.04 553.101 1012.42C505.045 1012.78 457.157 1012.56 409.144 1010.02C327.179 1005.7 122.175 987.29 64.6464 933.59C55.8581 925.387 49.0211 914.638 48.6927 902.297C48.386 890.774 53.9879 881.08 61.7578 872.968C84.7653 848.947 126.229 836.208 157.668 827.798C260.291 800.346 367.306 794.482 473.048 792.231Z"></path><path fill="#E2E2E2" transform="scale(0.665039 0.665039)" d="M470.665 824.238C557.787 823.034 647.712 825.3 734.276 835.157C781.245 840.505 826.262 847.394 871.771 861.114C893.034 867.194 919.533 877.105 937.109 890.265C966.293 912.117 895.05 934.587 880.262 939.159C832.36 953.971 781.53 962.4 731.633 968.574C672.492 975.778 613.022 979.949 553.454 981.069C526.529 982.003 497.603 981.426 470.594 980.875C405.989 979.841 341.503 974.977 277.475 966.31C234.184 960.449 190.459 952.807 148.453 940.369C127.724 934.026 105.841 926.835 88.3499 913.671C81.0542 908.18 76.6077 899.814 84.5407 892.723C94.2783 884.019 108.367 877.371 120.435 872.425C142.348 863.445 165.579 857.138 188.629 851.888C279.358 831.192 377.743 825.18 470.665 824.238Z"></path></svg><style>@media (prefers-color-scheme: light) { :root { filter: none; } }
@media (prefers-color-scheme: dark) { :root { filter: none; } }
</style></svg>