<svg id="svg2" viewBox="0 0 500 670" xmlns="http://www.w3.org/2000/svg" xmlns:bx="https://boxy-svg.com">
  <desc>Source: openclipart.org/detail/209545</desc>
  <defs>
    <bx:export>
      <bx:file format="svg"></bx:file>
    </bx:export>
  </defs>
  <g>
    <path d="M 2.261 3.25 L 497.26 3.25 L 497.26 498.245 L 2.261 498.245 L 2.261 3.25 Z" style="stroke-width: 0.665; fill: rgb(255, 255, 255);"></path>
    <path d="M 249.65 13.034 C 251.054 13.991 256.574 23.005 257.882 25.024 C 261.046 29.918 264.13 34.864 267.132 39.86 C 275.545 53.676 279.844 62.415 281.216 79.071 C 285.554 76.083 289.411 72.502 293.623 69.474 C 303.49 62.378 312.927 54.031 322.825 47.08 C 322.205 50.841 321.905 55.233 321.419 59.062 C 319.67 72.82 319.066 86.255 319.133 100.125 C 324.649 94.386 330.011 88.74 336.162 83.683 C 338.119 82.076 339.857 80.344 342.027 79.014 C 343.956 85.189 345.365 93.168 346.684 99.642 C 348.355 107.849 351.014 116.894 351.043 125.183 C 351.061 130.518 349.498 136.008 347.927 141.052 C 361.028 141.315 375.037 141.047 388.212 141.052 L 466.08 141.074 L 465.891 396.48 L 450.977 396.494 L 451.07 354.952 L 244.321 355.128 L 48.679 354.917 L 48.643 396.56 C 43.614 396.497 38.583 396.498 33.554 396.564 L 33.665 141.012 L 152.43 141.012 C 146.719 125.581 149.397 112.783 152.458 97.261 C 153.757 90.536 155.113 83.823 156.527 77.121 C 164.294 85.134 172.543 92.967 180.415 101.011 C 180.276 92.529 180.989 82.339 179.8 74.01 C 178.46 64.616 177.362 55.038 175.942 45.682 C 179.728 48.922 184.579 52.278 188.6 55.416 C 198.875 63.433 208.7 71.103 218.51 79.694 C 218.989 76.267 219.06 73.104 219.754 69.622 C 223.346 51.63 234.917 36.894 244.069 21.445 C 245.637 18.798 247.74 15.394 249.65 13.034 Z" style="stroke-width: 0.665;"></path>
    <path d="M 249.763 40.889 C 260.332 56.709 269.316 71.76 265.403 91.653 C 264.141 98.073 261.847 102.987 259.557 109.02 C 256.884 116.062 255.135 123.952 255.078 131.486 C 259.857 134.563 265.621 138.545 270.236 141.89 C 270.224 122.604 272.115 109.905 286.668 95.369 C 291.115 90.927 298.908 84.241 304.15 80.808 C 304.056 87.469 304.008 94.13 304.004 100.791 C 303.988 104.778 304.206 110.42 303.512 114.246 C 303.208 115.921 300.379 119.43 299.299 120.927 C 295.504 126.185 289.617 133.466 286.916 139.316 C 291.225 141.897 296.228 145.03 300.672 147.289 C 302.866 143.62 304.685 139.807 307.143 136.312 C 311.524 130.079 316.803 124.285 322.042 118.764 C 325.352 115.278 328.727 111.513 332.111 108.123 C 333.22 111.496 334.145 114.928 334.882 118.401 C 335.728 122.385 336.429 126.01 335.201 129.995 C 332.312 139.372 327.108 147.624 321.677 155.696 C 325.328 158.391 329.586 161.453 333.048 164.344 L 338.498 156.481 C 345.125 156.406 351.867 156.27 358.484 156.294 L 358.42 209.371 C 358.463 221.315 358.747 234.223 358.46 246.104 L 335.349 246.103 L 163.018 246.134 L 141.006 246.123 C 141.145 227.516 141.185 208.908 141.126 190.301 C 141.111 179.364 140.849 167.245 141.132 156.369 L 160.654 156.317 C 162.55 158.814 164.779 161.906 166.757 164.269 L 178.408 155.245 C 167.917 142.359 162.558 132.827 164.391 115.456 C 164.675 112.88 165.16 110.33 165.844 107.83 C 168.054 109.944 170.201 112.119 172.324 114.319 C 179.807 122.077 188.214 129.206 194.032 138.384 C 195.896 141.324 197.569 144.363 199.321 147.369 C 202.928 145.112 208.766 141.572 212.075 139.151 C 207.882 131.088 203.712 125.336 198.214 118.712 C 194.622 114.383 195.479 87.176 195.604 80.833 C 211.157 92.279 226.059 105.426 228.876 125.626 C 229.684 131.412 229.675 135.983 229.601 141.794 C 234.547 138.603 239.839 134.799 244.677 131.386 C 244.284 118.395 241.324 112.203 236.734 100.443 C 227.934 77.9 237.29 59.433 249.763 40.889 Z" style="stroke-width: 0.665; fill: rgb(255, 255, 255);"></path>
    <path d="M 163.018 246.134 C 163.108 219.5 170.948 196.592 189.891 177.091 C 204.972 161.564 227.225 151.725 249.07 151.857 C 272.184 151.899 294.29 161.323 310.325 177.969 C 326.385 194.351 336.052 216.357 335.582 239.369 C 335.545 241.17 335.282 244.609 335.349 246.103 L 163.018 246.134 Z" style="stroke-width: 0.665;"></path>
    <path d="M 48.79 323.733 L 451.065 323.757 L 451.089 339.626 C 450.482 340.081 392.271 339.927 385.857 339.929 L 265.983 339.985 L 139.017 339.94 C 108.905 340.029 78.794 339.951 48.684 339.704 C 48.65 334.38 48.684 329.056 48.79 323.733 Z" style="stroke-width: 0.665; fill: rgb(255, 255, 255);"></path>
    <path d="M 49.44 261.502 C 68.048 261.198 87.269 261.563 105.937 261.579 L 219.047 261.643 L 450.94 261.391 C 450.939 263.534 451.065 275.71 450.797 277.187 L 450.408 277.436 L 48.727 277.485 C 48.727 275.052 48.594 263.377 48.939 261.782 L 49.44 261.502 Z" style="stroke-width: 0.665; fill: rgb(255, 255, 255);"></path>
    <path d="M 48.828 292.804 L 330.993 292.814 C 370.832 292.791 411.207 292.377 451.019 292.788 C 451.07 298.059 451.059 303.332 450.986 308.603 C 431.995 308.823 413.003 308.837 394.013 308.644 L 312.85 308.549 L 48.698 308.449 L 48.828 292.804 Z" style="stroke-width: 0.665; fill: rgb(255, 255, 255);"></path>
    <path d="M 79.26 156.228 C 84.456 156.125 89.955 156.225 95.175 156.243 L 95.163 246.101 C 90.6 246.351 83.764 246.152 79.044 246.154 C 79.2 216.401 78.781 185.868 79.26 156.228 Z" style="stroke-width: 0.665; fill: rgb(255, 255, 255);"></path>
    <path d="M 404.458 156.32 C 409.525 156.195 415.085 156.291 420.186 156.289 L 420.295 246.378 L 404.399 246.402 C 404.129 216.376 404.148 186.347 404.458 156.32 Z" style="stroke-width: 0.665; fill: rgb(255, 255, 255);"></path>
    <path d="M 373.505 156.294 L 389.095 156.323 C 389.353 167.497 389.097 179.712 389.069 190.935 L 388.968 246.349 L 373.374 246.431 L 373.505 156.294 Z" style="stroke-width: 0.665; fill: rgb(255, 255, 255);"></path>
    <path d="M 110.338 156.242 C 115.495 156.172 120.843 156.243 126.013 156.249 L 126.004 246.138 L 110.298 246.147 L 110.338 156.242 Z" style="stroke-width: 0.665; fill: rgb(255, 255, 255);"></path>
    <path d="M 48.751 156.275 L 64.396 156.303 L 64.299 246.162 L 48.827 246.172 L 48.751 156.275 Z" style="stroke-width: 0.665; fill: rgb(255, 255, 255);"></path>
    <path d="M 435.425 156.282 C 440.598 156.259 445.771 156.267 450.943 156.31 C 451.091 165.189 450.924 174.477 450.932 183.391 L 450.84 246.127 L 435.484 246.141 C 435.311 216.189 435.292 186.235 435.425 156.282 Z" style="stroke-width: 0.665; fill: rgb(255, 255, 255);"></path>
    <path fill="#283618" d="M 230.93 386.209 C 283.465 385.238 427.98 388.166 466.28 423.621 C 470.598 427.618 474 432.804 474.204 438.847 C 474.393 444.299 471.921 449.013 468.254 452.894 C 446.585 475.818 371.731 485.233 340.101 488.384 C 316.662 490.559 293.158 491.98 269.627 492.647 C 246.397 492.821 223.248 492.715 200.039 491.487 C 160.418 489.399 61.32 480.499 33.51 454.542 C 29.263 450.576 25.958 445.38 25.799 439.415 C 25.651 433.844 28.358 429.158 32.114 425.237 C 43.236 413.626 63.279 407.468 78.477 403.402 C 128.084 390.132 179.815 387.297 230.93 386.209 Z" style="stroke-width: 0.665;"></path>
    <path d="M 229.778 401.681 C 271.892 401.1 315.362 402.195 357.206 406.96 C 379.91 409.544 401.671 412.875 423.67 419.507 C 433.948 422.446 446.758 427.237 455.254 433.598 C 469.362 444.161 434.923 455.023 427.775 457.233 C 404.619 464.393 380.048 468.468 355.928 471.452 C 327.34 474.934 298.593 476.951 269.797 477.492 C 256.782 477.944 242.799 477.665 229.743 477.399 C 198.514 476.898 167.342 474.548 136.391 470.358 C 115.464 467.525 94.328 463.831 74.022 457.818 C 64.002 454.752 53.424 451.276 44.969 444.913 C 41.442 442.258 39.293 438.214 43.128 434.786 C 47.835 430.579 54.645 427.366 60.479 424.974 C 71.071 420.633 82.301 417.585 93.443 415.047 C 137.301 405.043 184.86 402.137 229.778 401.681 Z" style="stroke-width: 0.665; fill: rgb(255, 255, 255);"></path>
  </g>
</svg>